<?xml version="1.0" encoding="utf-8"?>
<!-- Generator: Adobe Illustrator 20.0.0, SVG Export Plug-In . SVG Version: 6.00 Build 0)  -->
<svg version="1.1" baseProfile="tiny" id="Layer_1" xmlns="http://www.w3.org/2000/svg" xmlns:xlink="http://www.w3.org/1999/xlink"
	 x="0px" y="0px" viewBox="0 0 368.8 65.7" xml:space="preserve">
<g>
	<rect x="103.5" y="11.4" fill="#8C8C8C" width="264.5" height="2.1"/>
	<rect x="103.5" y="53.2" fill="#8C8C8C" width="264.5" height="2.1"/>
	<g>
		<path fill="#010101" d="M118.9,24.2h4.2V39h13.6v3.4h-17.9V24.2z"/>
		<path fill="#010101" d="M146.4,24.2h13.4c3.4,0,4.5,0.9,4.5,4.3v9.6c0,3.4-1.1,4.3-4.5,4.3h-13.4c-3.4,0-4.5-0.9-4.5-4.3v-9.6
			C141.9,25.1,143,24.2,146.4,24.2z M160.1,39V27.4h-13.9V39H160.1z"/>
		<path fill="#010101" d="M177.4,24.2h13.4c3.4,0,4.5,0.9,4.5,4.3v9.6c0,3.4-1.1,4.3-4.5,4.3h-13.4c-3.4,0-4.5-0.9-4.5-4.3v-9.6
			C172.8,25.1,173.9,24.2,177.4,24.2z M191,39V27.4h-14V39H191z"/>
		<path fill="#010101" d="M204.2,24.2h4.3v7.6l10.1-7.6h6.1l-12,8.6l13.5,9.6h-6.8l-10.9-8v8h-4.3V24.2z"/>
		<path fill="#BA6127" d="M239.7,24.2h4.1l10.4,18.2h-4.8l-2.2-4h-11.5l-2.1,4h-4.2L239.7,24.2z M245.6,35.1l-3.9-7.4l-4.1,7.4
			H245.6z"/>
		<path fill="#BA6127" d="M260.1,24.2h15.6c2.8,0,4.1,1,4.1,3.5v2.2c0,1.8-1.1,2.8-3.1,3.1c2.1,0.3,3.3,1.5,3.3,3.5v2.3
			c0,2.4-1.8,3.6-5.4,3.6h-14.4V24.2z M264.3,27.1v4.3h9.7c1.3,0,1.9-0.2,1.9-1.3v-1.7c0-1.1-0.6-1.3-1.9-1.3H264.3z M264.3,34.5
			v4.6h9.7c1.4,0,2-0.3,2-1.6v-1.4c0-1.3-0.6-1.6-2-1.6H264.3z"/>
		<path fill="#BA6127" d="M292.2,24.2h13.4c3.4,0,4.5,0.9,4.5,4.3v9.6c0,3.4-1.1,4.3-4.5,4.3h-13.4c-3.4,0-4.5-0.9-4.5-4.3v-9.6
			C287.7,25.1,288.8,24.2,292.2,24.2z M305.9,39V27.4h-13.9V39H305.9z"/>
		<path fill="#BA6127" d="M323.2,39h12V24.2h4.2v13.9c0,3.4-1.1,4.3-4.5,4.3h-11.5c-3.4,0-4.5-0.9-4.5-4.3V24.2h4.2V39z"/>
		<path fill="#BA6127" d="M357.3,42.4H353V27.4h-8.3v-3.2h21v3.2h-8.4V42.4z"/>
	</g>
	<g>
		<rect x="105.4" y="24.2" fill="#BA6127" width="4.2" height="3.9"/>
		<rect x="105.4" y="29.7" fill="#BA6127" width="4.2" height="12.6"/>
	</g>
	<g>
		<g>
			<g>
				<path fill="#BA6127" d="M11.5,34.1c0,1.1,0.1,2.1,0.3,3.2c0,0.2,0.1,0.4,0.1,0.6c2.8-7.2,12.2-11.4,23.4-11.4h50.1
					c-0.4-1.9-0.8-4.1-1.3-5.8H36.2C24.4,20.6,13.8,26.3,11.5,34.1z"/>
			</g>
			<path fill="#BA6127" d="M38.3,7.5h23.5c-6-4.6-11.8-5.9-18.7-5.9c-10.4,0-19.5,5-25.3,12.7c0,0.1-0.1,0.2-0.1,0.3
				C21.9,9.7,29.6,7.5,38.3,7.5z"/>
			<g>
				<path fill="#BA6127" d="M35.2,17.1h47.4c-0.9-2.1-1.9-4.4-3-6H35.2c-9,0-17,4.6-21.1,9.7c-1.3,2.9-2,5.9-2.3,9.1
					C14.4,22.6,23.9,17.1,35.2,17.1z"/>
			</g>
		</g>
		<g>
			<g>
				<path fill="#BA6127" d="M74.8,32c0-1.1-0.1-2.1-0.3-3.2c0-0.2-0.1-0.4-0.1-0.6c-2.8,7.2-12.2,11.4-23.4,11.4H1
					c0.4,1.9,0.8,4.1,1.3,5.8h47.9C61.9,45.5,72.6,39.8,74.8,32z"/>
			</g>
			<path fill="#BA6127" d="M48.2,58.8H24.7c6,4.6,11.8,5.9,18.7,5.9c10.4,0,19.5-5,25.3-12.7c0-0.1,0.1-0.2,0.1-0.3
				C64.5,56.5,56.9,58.8,48.2,58.8z"/>
			<g>
				<path fill="#BA6127" d="M51.2,49.1H3.5c0.9,2.1,1.9,4.4,3,6h44.7c9,0,17-4.6,21.1-9.7c1.3-2.9,2-5.8,2.4-9.1
					C72.1,43.6,62.5,49.1,51.2,49.1z"/>
			</g>
			<path fill="#BA6127" d="M18.7,35.5c0,0,5.4-4.6,13.8-4.6c5.5,0,36.1,0,36.1,0s-5.3,4.6-15.3,4.6C46.5,35.5,18.7,35.5,18.7,35.5z"
				/>
		</g>
	</g>
</g>
</svg>
